<svg width="190" height="46" viewBox="0 0 190 46" fill="none" xmlns="http://www.w3.org/2000/svg">
<g clip-path="url(#clip0_97_334)">
<path d="M59.8302 43.6865L58.6248 40.1489H57.373L56.1348 43.6508L54.9485 40.1489H53.5654L55.3886 45.3398H56.8099L57.9688 42.1048L59.1141 45.3398H60.5245L62.3586 40.1489H61.0603L59.8302 43.6865Z" fill="#004E55"/>
<path d="M79.4041 40.402C79.0078 40.1819 78.5595 40.0746 78.0648 40.0746C77.5701 40.0746 77.089 40.1874 76.679 40.4185C76.269 40.6468 75.9492 40.9632 75.7196 41.3675C75.49 41.7719 75.3779 42.2313 75.3779 42.7457C75.3779 43.2601 75.4955 43.7168 75.7333 44.1212C75.9711 44.5228 76.3073 44.8391 76.7391 45.0702C77.171 45.3013 77.6767 45.4168 78.2534 45.4168C78.7099 45.4168 79.1144 45.3453 79.467 45.1995C79.8196 45.0565 80.1093 44.8474 80.3417 44.5778L79.5627 43.7085C79.3932 43.8763 79.2073 44.0029 79.0023 44.0854C78.7973 44.1679 78.565 44.2119 78.3026 44.2119C77.9965 44.2119 77.7313 44.1569 77.5127 44.0441C77.294 43.9313 77.1218 43.769 76.9961 43.5572C76.9277 43.4417 76.8813 43.3124 76.8512 43.1721H80.6724C80.6779 43.1088 80.6833 43.0401 80.6915 42.963C80.6997 42.8888 80.7025 42.8228 80.7025 42.765C80.7025 42.2038 80.5849 41.7252 80.3553 41.3263C80.123 40.9274 79.8087 40.6193 79.4096 40.3992L79.4041 40.402ZM77.4115 41.3813C77.6029 41.2685 77.8243 41.2135 78.0757 41.2135C78.3272 41.2135 78.5459 41.2685 78.7345 41.3813C78.9231 41.4941 79.0707 41.6509 79.1773 41.8489C79.2483 41.981 79.2839 42.1323 79.3057 42.2918H76.8375C76.8621 42.1323 76.9004 41.981 76.9687 41.8517C77.0753 41.6481 77.2257 41.4913 77.417 41.3785L77.4115 41.3813Z" fill="#004E55"/>
<path d="M95.8342 38.182H94.3691V45.3398H95.8342V38.182Z" fill="#004E55"/>
<path d="M111.36 38.182H109.895V45.3398H111.36V38.182Z" fill="#004E55"/>
<path d="M129.572 40.3195C129.255 40.1572 128.897 40.0746 128.495 40.0746C128.063 40.0746 127.678 40.1682 127.339 40.3552C127.134 40.468 126.967 40.6193 126.822 40.7899V40.1517H125.42V45.3398H126.888V42.7732C126.888 42.4459 126.94 42.1818 127.044 41.981C127.147 41.7829 127.292 41.6316 127.475 41.5271C127.659 41.4253 127.869 41.373 128.101 41.373C128.429 41.373 128.681 41.4721 128.858 41.6729C129.036 41.871 129.126 42.1818 129.126 42.5999V45.3398H130.594V42.3689C130.594 41.8434 130.504 41.4088 130.321 41.0732C130.14 40.7348 129.889 40.4845 129.572 40.3195Z" fill="#004E55"/>
<path d="M148.276 40.402C147.88 40.1819 147.431 40.0746 146.937 40.0746C146.442 40.0746 145.961 40.1874 145.548 40.4185C145.138 40.6468 144.818 40.9632 144.589 41.3675C144.359 41.7719 144.247 42.2313 144.247 42.7457C144.247 43.2601 144.365 43.7168 144.602 44.1212C144.84 44.5228 145.176 44.8391 145.608 45.0702C146.04 45.3013 146.546 45.4168 147.123 45.4168C147.582 45.4168 147.984 45.3453 148.336 45.1995C148.686 45.0565 148.978 44.8474 149.211 44.5778L148.429 43.7085C148.262 43.8763 148.074 44.0029 147.871 44.0854C147.666 44.1679 147.434 44.2119 147.172 44.2119C146.866 44.2119 146.6 44.1569 146.382 44.0441C146.163 43.9313 145.991 43.769 145.865 43.5572C145.797 43.4417 145.75 43.3124 145.72 43.1721H149.544C149.552 43.1088 149.558 43.0401 149.563 42.963C149.569 42.8888 149.572 42.8228 149.572 42.765C149.572 42.2038 149.454 41.7252 149.224 41.3263C148.992 40.9274 148.678 40.6193 148.279 40.3992L148.276 40.402ZM146.281 41.3813C146.472 41.2685 146.693 41.2135 146.945 41.2135C147.196 41.2135 147.415 41.2685 147.601 41.3813C147.787 41.4941 147.937 41.6509 148.044 41.8489C148.115 41.981 148.15 42.1323 148.172 42.2918H145.704C145.729 42.1323 145.767 41.981 145.835 41.8517C145.942 41.6481 146.089 41.4913 146.281 41.3785V41.3813Z" fill="#004E55"/>
<path d="M166.728 42.6137C166.542 42.5064 166.343 42.4239 166.13 42.3661C165.916 42.3083 165.7 42.2643 165.482 42.2313C165.263 42.1983 165.061 42.168 164.88 42.135C164.7 42.102 164.552 42.0525 164.438 41.9865C164.326 41.9177 164.268 41.8214 164.268 41.6921C164.268 41.5518 164.345 41.4336 164.495 41.3455C164.645 41.2548 164.891 41.2107 165.228 41.2107C165.454 41.2107 165.69 41.2383 165.938 41.2988C166.187 41.3565 166.43 41.4556 166.668 41.5986L167.168 40.5285C166.922 40.3855 166.624 40.2754 166.269 40.1957C165.914 40.1159 165.561 40.0746 165.211 40.0746C164.722 40.0746 164.304 40.1462 163.959 40.2864C163.615 40.4267 163.347 40.6248 163.161 40.8806C162.973 41.1337 162.877 41.4253 162.877 41.7527C162.877 42.0498 162.934 42.2891 163.041 42.4761C163.15 42.6632 163.298 42.809 163.484 42.9163C163.67 43.0236 163.869 43.1061 164.085 43.1611C164.301 43.2189 164.52 43.2656 164.738 43.2959C164.957 43.3289 165.157 43.3592 165.334 43.3922C165.512 43.4252 165.657 43.472 165.766 43.5325C165.875 43.593 165.93 43.6838 165.93 43.8076C165.93 43.9561 165.859 44.0716 165.72 44.1542C165.577 44.2367 165.34 44.278 165.001 44.278C164.695 44.278 164.383 44.2312 164.066 44.1377C163.749 44.0441 163.473 43.9286 163.235 43.7856L162.754 44.8556C162.992 45.0179 163.309 45.15 163.705 45.2545C164.099 45.3618 164.514 45.4141 164.946 45.4141C165.454 45.4141 165.886 45.3425 166.239 45.2023C166.594 45.062 166.865 44.8666 167.053 44.6191C167.242 44.3715 167.335 44.0909 167.335 43.7746C167.335 43.4775 167.28 43.2381 167.171 43.0511C167.062 42.864 166.914 42.7182 166.728 42.6109V42.6137Z" fill="#004E55"/>
<path d="M184.416 42.6137C184.23 42.5064 184.03 42.4239 183.817 42.3661C183.604 42.3083 183.388 42.2643 183.169 42.2313C182.951 42.1983 182.748 42.168 182.568 42.135C182.388 42.102 182.24 42.0525 182.125 41.9865C182.013 41.9177 181.956 41.8214 181.956 41.6921C181.956 41.5518 182.032 41.4336 182.183 41.3455C182.333 41.2548 182.579 41.2107 182.915 41.2107C183.142 41.2107 183.377 41.2383 183.626 41.2988C183.874 41.3565 184.118 41.4556 184.356 41.5986L184.856 40.5285C184.61 40.3855 184.312 40.2754 183.956 40.1957C183.601 40.1159 183.249 40.0746 182.899 40.0746C182.409 40.0746 181.991 40.1462 181.647 40.2864C181.302 40.4267 181.035 40.6248 180.849 40.8806C180.66 41.1337 180.564 41.4253 180.564 41.7527C180.564 42.0498 180.622 42.2891 180.728 42.4761C180.838 42.6632 180.985 42.809 181.171 42.9163C181.357 43.0236 181.557 43.1061 181.773 43.1611C181.988 43.2189 182.207 43.2656 182.426 43.2959C182.644 43.3289 182.844 43.3592 183.022 43.3922C183.199 43.4252 183.344 43.472 183.454 43.5325C183.563 43.593 183.618 43.6838 183.618 43.8076C183.618 43.9561 183.546 44.0716 183.407 44.1542C183.265 44.2367 183.027 44.278 182.688 44.278C182.382 44.278 182.07 44.2312 181.753 44.1377C181.436 44.0441 181.16 43.9286 180.922 43.7856L180.441 44.8556C180.679 45.0179 180.996 45.15 181.393 45.2545C181.786 45.3618 182.202 45.4141 182.634 45.4141C183.142 45.4141 183.574 45.3425 183.926 45.2023C184.282 45.062 184.552 44.8666 184.741 44.6191C184.93 44.3715 185.022 44.0909 185.022 43.7746C185.022 43.4775 184.968 43.2381 184.858 43.0511C184.749 42.864 184.602 42.7182 184.416 42.6109V42.6137Z" fill="#004E55"/>
<path d="M54.6117 24.7633V12.1753H49.1997V23.663C49.1997 27.8718 46.8354 30.0257 43.5144 30.0257C40.1933 30.0257 37.829 27.9653 37.829 23.663V12.1753H32.417V23.663C32.417 30.3311 36.4705 33.9815 40.8084 35.0433V46H46.2204V35.1011C50.4461 34.2373 54.6117 31.2361 54.6117 24.7633Z" fill="#004E55"/>
<path d="M74.3034 11.5784C67.6641 11.5784 63.2061 15.4681 63.2061 23.022V34.7847H68.6181V23.022C68.6181 18.7197 70.8922 16.6593 74.3034 16.6593C77.7146 16.6593 79.9888 18.7169 79.9888 23.022V34.7847H85.4008V23.022C85.4008 15.4241 80.9427 11.5784 74.3034 11.5784Z" fill="#004E55"/>
<path d="M104.501 11.5784C97.3614 11.5784 92.3594 16.5217 92.3594 23.707C92.3594 31.4424 98.0885 35.3789 103.547 35.3789C107.095 35.3789 110.14 33.6844 111.506 30.3448V34.782H116.462V23.6602C116.462 16.3842 111.55 11.5756 104.501 11.5756V11.5784ZM104.454 30.298C100.499 30.298 97.8151 27.4592 97.8151 23.4787C97.8151 19.4981 100.499 16.6593 104.454 16.6593C108.41 16.6593 111.05 19.4954 111.05 23.4787C111.05 27.4619 108.412 30.298 104.454 30.298Z" fill="#004E55"/>
<path d="M149.295 11.5784C145.884 11.5784 143.11 12.9978 141.519 15.6524C139.882 12.9978 137.107 11.5784 133.743 11.5784C128.421 11.5784 124.329 14.7832 124.329 21.8776V34.7847H129.741V21.8776C129.741 18.1695 131.652 16.6593 134.289 16.6593C136.927 16.6593 138.838 18.2162 138.838 21.8776V34.7847H144.25V21.8776C144.25 18.2162 146.16 16.6593 148.752 16.6593C151.343 16.6593 153.3 18.1695 153.3 21.8776V34.7847H158.712V21.8776C158.712 14.7832 154.62 11.5784 149.298 11.5784H149.295Z" fill="#004E55"/>
<path d="M19.6522 5.42746V23.2861C19.6522 27.1373 16.7276 30.4659 12.9063 30.6694C8.45373 30.906 4.82112 27.008 5.46893 22.4553C5.96366 18.9645 9.0578 16.3126 12.5619 16.3319C12.5865 16.3319 12.6139 16.3319 12.6385 16.3319C14.1555 16.3567 15.5468 15.5066 16.088 14.0817L16.979 11.7242C15.3882 11.1163 13.7017 10.8412 11.9797 10.9154C5.93633 11.1713 0.830446 15.8835 0.0951772 21.9272C-0.872426 29.8909 5.59739 36.6388 13.4366 36.0749C19.8354 35.6127 25.0451 29.6461 25.0451 23.1898V0C22.0658 0 19.6522 2.42902 19.6522 5.42746Z" fill="#004E55"/>
<path d="M185.408 13.8754C185.354 13.8341 185.272 13.8506 185.236 13.9084L183.386 16.8491C182.853 17.6936 182.902 18.7527 183.421 19.6054C183.831 20.2821 184.126 21.0551 184.29 21.9024C185.242 26.8402 180.827 31.3516 175.973 30.1688C172.879 29.415 170.93 26.6944 171.066 23.132C171.195 19.8117 174.021 16.7858 177.318 16.6015C177.774 16.5767 178.211 16.5877 178.632 16.6372C179.685 16.7555 180.718 16.3181 181.286 15.4186L183.028 12.654C183.066 12.5935 183.041 12.5082 182.976 12.4807C181.426 11.8232 179.679 11.4546 177.777 11.4546C170.605 11.4546 165.548 16.5437 165.548 23.4842C165.548 30.4246 170.605 35.5137 177.777 35.5137C184.949 35.5137 190.006 30.4246 190.006 23.4842C190.006 19.4349 188.276 16.0238 185.414 13.8781L185.408 13.8754Z" fill="#004E55"/>
</g>
<defs>
<clipPath id="clip0_97_334">
<rect width="190" height="46" fill="white"/>
</clipPath>
</defs>
</svg>
