<svg width="12" height="12" viewBox="0 0 12 12" fill="none" xmlns="http://www.w3.org/2000/svg">
<g clip-path="url(#clip0_97_329)">
<path d="M12.0004 11.293L8.86938 8.162C9.68269 7.1673 10.0826 5.89805 9.9863 4.61678C9.89003 3.33552 9.30498 2.14027 8.35217 1.27826C7.39936 0.416255 6.15167 -0.0465537 4.8672 -0.0144378C3.58272 0.0176781 2.35973 0.542262 1.45119 1.45081C0.542641 2.35935 0.0180572 3.58235 -0.0140587 4.86682C-0.0461746 6.15129 0.416634 7.39898 1.27864 8.35179C2.14064 9.30461 3.33589 9.88965 4.61716 9.98592C5.89842 10.0822 7.16768 9.68231 8.16238 8.869L11.2934 12L12.0004 11.293ZM5.00038 9C4.20925 9 3.43589 8.7654 2.7781 8.32588C2.1203 7.88635 1.60761 7.26164 1.30486 6.53073C1.00211 5.79983 0.922897 4.99556 1.07724 4.21964C1.23158 3.44371 1.61254 2.73098 2.17195 2.17157C2.73136 1.61216 3.44409 1.2312 4.22002 1.07686C4.99594 0.922518 5.80021 1.00173 6.53111 1.30448C7.26202 1.60723 7.88673 2.11992 8.32626 2.77772C8.76578 3.43551 9.00038 4.20887 9.00038 5C8.99919 6.0605 8.57738 7.07722 7.82749 7.82711C7.0776 8.577 6.06088 8.99881 5.00038 9Z" fill="#004E55"/>
</g>
<defs>
<clipPath id="clip0_97_329">
<rect width="12" height="12" fill="white"/>
</clipPath>
</defs>
</svg>
