<svg width="17" height="16" viewBox="0 0 17 16" fill="none" xmlns="http://www.w3.org/2000/svg">
<path d="M7.35189 1.16168C7.84067 0.241397 9.15933 0.241398 9.64811 1.16169L11.1171 3.92746C11.305 4.28125 11.6455 4.52865 12.04 4.59803L15.1244 5.14042C16.1507 5.32089 16.5581 6.57501 15.8339 7.32426L13.6575 9.57599C13.3791 9.86402 13.249 10.2643 13.3049 10.661L13.7422 13.762C13.8877 14.7938 12.8209 15.5689 11.8845 15.1117L9.07042 13.7375C8.71045 13.5618 8.28955 13.5618 7.92958 13.7375L5.11549 15.1117C4.17912 15.5689 3.11231 14.7938 3.2578 13.762L3.69508 10.661C3.75101 10.2643 3.62094 9.86402 3.34254 9.57599L1.16606 7.32425C0.441857 6.57501 0.849347 5.32089 1.87563 5.14042L4.95997 4.59803C5.35451 4.52865 5.69503 4.28125 5.88293 3.92746L7.35189 1.16168Z" fill="white"/>
</svg>
